# xmcd
#
# Track frame offsets:
#	150
#	18280
#	19174
#	33695
#	49058
#	66885
#	83771
#	98276
#	108304
#	126235
#	142470
#	156147
#	167318
#	183130
#	199493
#
# Disc length: 2900 seconds
#
# Revision: 0
# Processed by: cddbd v1.5.2PL0 Copyright (c) Steve Scherf et al.
# Submitted via: audiograbber 1.83.01
#
DISCID=c40b520f
DTITLE=Hillcrest - Hillcrest Pure Country 47
DYEAR=2009
DGENRE=Country
TTITLE0=Johnny Lyon and Willie Nelson  - Old School
TTITLE1=Clelia Adams  - Clelia  ID
TTITLE2=Clelia Adams  - I Love You a Thousand Ways
TTITLE3=The Big Bull Band  - Waymore's Blues
TTITLE4=Kate Sansing  - I Can't Let You Let Me Go Again
TTITLE5=Steve Eales  - This Is The Life
TTITLE6=Mary Resek  - I Just Might Be
TTITLE7=Manson Grant  - We Were Made For Each Other
TTITLE8=Alli Gillis  - Heartbreak Day
TTITLE9=Arly Karlsen  - Evangeline
TTITLE10=Melissa Bajric  - Truck Drivin' Man
TTITLE11=Annette Hawkins and Kim Copedo  - Chattahoochee
TTITLE12=Phil Mack  - Say You Love Me
TTITLE13=Rhonda Lee Wallace  - Party All Night Long
TTITLE14=John Allan  - Hold On To The Night
EXTD=
EXTT0=
EXTT1=
EXTT2=
EXTT3=
EXTT4=
EXTT5=
EXTT6=
EXTT7=
EXTT8=
EXTT9=
EXTT10=
EXTT11=
EXTT12=
EXTT13=
EXTT14=
PLAYORDER=
